<?xml version="1.0" standalone="no"?>
<!DOCTYPE svg PUBLIC "-//W3C//DTD SVG 20010904//EN"
 "http://www.w3.org/TR/2001/REC-SVG-20010904/DTD/svg10.dtd">
<svg version="1.0" xmlns="http://www.w3.org/2000/svg"
 width="512.000000pt" height="512.000000pt" viewBox="0 0 512.000000 512.000000"
 preserveAspectRatio="xMidYMid meet">

<g transform="translate(0.000000,512.000000) scale(0.100000,-0.100000)"
fill="#000000" stroke="none">
<path d="M1401 3530 c-155 -42 -291 -149 -363 -286 -41 -77 -68 -167 -68 -224
l0 -35 38 41 c82 92 192 157 329 196 103 30 314 32 413 5 136 -37 260 -110
342 -201 38 -41 38 -41 38 -14 0 92 -60 240 -133 330 -58 71 -177 151 -265
179 -98 31 -236 35 -331 9z"/>
<path d="M3423 3530 c-39 -10 -88 -27 -110 -38 -64 -33 -157 -108 -197 -159
-68 -87 -126 -234 -126 -320 0 -24 3 -23 53 27 273 276 778 280 1050 9 l57
-57 0 32 c0 105 -74 261 -170 356 -145 145 -358 202 -557 150z"/>
<path d="M1142 2120 c-44 -10 -70 -35 -83 -80 -9 -31 -7 -47 16 -115 74 -216
196 -406 375 -586 225 -226 469 -359 792 -431 90 -20 130 -23 318 -23 188 0
228 3 318 23 323 72 567 205 792 431 180 181 303 373 375 588 26 76 27 85 14
119 -18 48 -55 75 -107 77 -65 2 -90 -24 -138 -139 -52 -127 -75 -171 -139
-269 -201 -307 -523 -517 -889 -581 -119 -21 -333 -21 -452 0 -366 64 -688
275 -889 581 -64 98 -87 142 -139 269 -51 124 -87 154 -164 136z"/>
</g>
</svg>
