<?xml version="1.0" standalone="no"?>
<!DOCTYPE svg PUBLIC "-//W3C//DTD SVG 20010904//EN"
 "http://www.w3.org/TR/2001/REC-SVG-20010904/DTD/svg10.dtd">
<svg version="1.0" xmlns="http://www.w3.org/2000/svg"
 width="512.000000pt" height="512.000000pt" viewBox="0 0 512.000000 512.000000"
 preserveAspectRatio="xMidYMid meet">

<g transform="translate(0.000000,512.000000) scale(0.100000,-0.100000)"
fill="#000000" stroke="none">
<path d="M1525 3830 c-246 -28 -461 -204 -536 -440 -11 -36 -23 -102 -26 -146
-5 -72 -3 -86 17 -122 32 -56 88 -86 152 -80 86 9 132 61 144 163 10 90 39
158 90 210 81 84 199 119 306 90 137 -36 219 -129 240 -272 20 -138 79 -200
180 -191 95 10 142 70 140 181 -3 161 -65 300 -187 422 -143 143 -322 207
-520 185z"/>
<path d="M3445 3830 c-246 -28 -461 -204 -536 -440 -11 -36 -23 -102 -26 -146
-5 -72 -3 -86 17 -122 32 -56 88 -86 152 -80 86 9 132 61 144 163 10 90 39
158 90 210 81 84 199 119 306 90 137 -36 219 -129 240 -272 20 -138 79 -200
180 -191 95 10 142 70 140 181 -3 161 -65 300 -187 422 -143 143 -322 207
-520 185z"/>
</g>
</svg>
